<svg xmlns="http://www.w3.org/2000/svg" width="66.051" height="57.315" viewBox="0 0 66.051 57.315"><g transform="translate(0 -33.856)"><path d="M110.639,51.587l8.29-10.418h23.638l8.29,10.418v32.29H110.639Z" transform="translate(-96.366 -6.369)" fill="#e89e54" fill-rule="evenodd"/><path d="M110.639,51.587h40.218l-8.29-10.418H118.929Z" transform="translate(-96.366 -6.369)" fill="#faba7b" fill-rule="evenodd"/><path d="M236.494,41.169h4.937l1.613,10.418V61.812L241,58.78l-2.04,3.032-2.04-3.032-2.041,3.032V51.587Z" transform="translate(-204.58 -6.369)" fill="#fb4455" fill-rule="evenodd"/><path d="M110.639,282.82c1.229,0,2.454.026,3.671.143a36.451,36.451,0,0,1,11.841,3.646,2.055,2.055,0,0,0,.933.2h6.93a5.65,5.65,0,0,1,5.558,4.71l8.707-3.138a5.93,5.93,0,0,1,2.578-.325v6.293H110.639Z" transform="translate(-96.366 -216.846)" fill="#db8c3d" fill-rule="evenodd"/><path d="M96.316,311.274a3.92,3.92,0,1,0-2.658-7.376L81.6,308.242a3.619,3.619,0,0,0-2.893-5.8h-6.93a4.083,4.083,0,0,1-1.774-.387c-10.082-4.618-12.133-3.481-22.863-3.481l.073,16.81c8.981,0,7.7-.157,15.476,3.73,3.986,2.136,7.973,1.971,11.958.563Z" transform="translate(-41.061 -230.464)" fill="#faba7b" fill-rule="evenodd"/><path d="M7,268.678h8.6V293.8H7Z" transform="translate(-6.1 -204.529)" fill="#fb4455"/><g transform="translate(0.904 34.759)"><path d="M349.236,67.234c-7.365-3.255-9.471-11.2-9.445-18.6l.007-2.428,2.377-.49a13.5,13.5,0,0,0,6.312-3.156l1.96-1.7,1.96,1.7a13.5,13.5,0,0,0,6.312,3.156l2.377.49.008,2.428c.022,7.4-2.081,15.344-9.449,18.6l-1.207.534Z" transform="translate(-296.859 -40.857)" fill="#69a7ff" fill-rule="evenodd"/><path d="M371.8,92.549c5.994-2.651,7.511-9.431,7.489-15.494a16.108,16.108,0,0,1-7.489-3.737,16.123,16.123,0,0,1-7.493,3.737c-.018,6.063,1.5,12.843,7.493,15.494Z" transform="translate(-318.216 -69.13)" fill="#d5e3f2" fill-rule="evenodd"/><path d="M234.881,121.928h8.162v10.225L241,129.121l-2.04,3.032-2.04-3.032-2.041,3.032Z" transform="translate(-205.484 -111.469)" fill="#e82e41" fill-rule="evenodd"/><path d="M12.628,291.025H7V293.8h8.6V268.678H12.628v22.347Z" transform="translate(-7.004 -239.288)" fill="#e82e41" fill-rule="evenodd"/><path d="M85.378,365.661c-6.469-3.233-6.666-3.668-11.731-3.723v2.574c5.456.036,5.493.41,12.13,3.726,3.986,2.135,7.973,1.971,11.958.563l21.667-8.407a3.93,3.93,0,0,0,2.359-5.017,4.261,4.261,0,0,0-.234-.527,3.933,3.933,0,0,1-2.52,2.966l-21.67,8.407c-3.986,1.412-7.972,1.572-11.958-.563Z" transform="translate(-65.05 -314.344)" fill="#f5ad65" fill-rule="evenodd"/><path d="M406.8,242.344v10.612a5.964,5.964,0,0,1,2.011-.15v-9.544l-1.21-.534q-.411-.181-.8-.384Z" transform="translate(-355.224 -216.351)" fill="#db8c3d" fill-rule="evenodd"/><path d="M342.541,41.169l3.525,4.429a13.535,13.535,0,0,0,1.529-.6l-3.042-3.825Z" transform="translate(-299.255 -41.129)" fill="#f5ad65" fill-rule="evenodd"/><path d="M426.008,48.634c.026,7.266-2,15.052-9.047,18.416-.132.062-.267.124-.4.183l-.406.179.8.355,1.207-.534c7.369-3.255,9.471-11.2,9.449-18.6l-.007-2.428-2.377-.49a13.5,13.5,0,0,1-6.312-3.156l-1.96-1.7-.8.7,1.156,1.006a13.519,13.519,0,0,0,6.312,3.156l2.377.49Z" transform="translate(-363.374 -40.856)" fill="#4c8fed" fill-rule="evenodd"/></g><path d="M66.043,40.107a.9.9,0,0,0-.721-.882l-2.376-.49a12.59,12.59,0,0,1-5.9-2.953l-1.96-1.7a.9.9,0,0,0-1.185,0l-1.96,1.7A13.539,13.539,0,0,1,49.5,37.489l-2.586-3.252A.9.9,0,0,0,46.2,33.9H22.566a.9.9,0,0,0-.707.341L13.57,44.656a.9.9,0,0,0-.2.562V67.094c-.682.009-1.4.026-2.16.043l-.809.018V64.149a.9.9,0,0,0-.9-.9H.9a.9.9,0,0,0-.9.9V89.272a.9.9,0,0,0,.9.9H9.5a.9.9,0,0,0,.9-.9V85.841c3.8.064,4.511.427,8.782,2.592.6.305,1.273.645,2.029,1.023a14.029,14.029,0,0,0,6.726,1.715,17.83,17.83,0,0,0,5.948-1.1l.026-.01,21.657-8.407a4.818,4.818,0,0,0,.408-8.89,4.937,4.937,0,0,0-.587-.23V62.259l.673-.3a15.3,15.3,0,0,0,7.957-8.212,27.868,27.868,0,0,0,2.027-11.22ZM8.6,88.369H1.806V65.053H8.6ZM45.769,35.7l2.023,2.543a13.242,13.242,0,0,1-1.751.488l-2.381.49a.9.9,0,0,0-.721.882l-.007,2.425q0,.909.037,1.783H39.237L37.907,35.7Zm-13.081,0h3.392l1.33,8.612H31.358Zm-1.48,10.418h6.352v6.357l-.384-.571a.9.9,0,0,0-1.5,0l-1.291,1.918-1.291-1.918a.9.9,0,0,0-1.5,0l-.388.576ZM23,35.7H30.86l-1.33,8.612H16.149ZM15.179,46.121H29.4v9.321a.9.9,0,0,0,1.653.5l1.291-1.918,1.291,1.918a.9.9,0,0,0,1.5,0l1.29-1.917,1.288,1.917a.9.9,0,0,0,1.653-.5V46.121h3.728a25.133,25.133,0,0,0,1.865,7.629,15.292,15.292,0,0,0,7.96,8.212l.669.3V72.311a4.813,4.813,0,0,0-1.294.273L42.129,76.246a4.526,4.526,0,0,0-4.482-5.167H30.718a3.169,3.169,0,0,1-1.4-.305c-6.558-3.009-9.851-3.629-14.141-3.684ZM56.764,76.1a3.024,3.024,0,0,1-1.815,3.857l-.021.008L33.275,88.37c-4.165,1.468-7.835,1.3-11.218-.512l-.023-.012c-.757-.378-1.428-.719-2.031-1.024-4.43-2.245-5.345-2.709-9.6-2.787V68.962l.85-.019c1.1-.025,2.093-.048,3.021-.051h0c4.6-.014,7.607.458,14.291,3.524a5.005,5.005,0,0,0,2.148.469h6.93a2.713,2.713,0,0,1,2.171,4.35c-.007.009-.011.018-.017.027l-.008.01a2.714,2.714,0,0,1-2.145,1.051H26.362a.9.9,0,1,0,0,1.806H37.647a4.5,4.5,0,0,0,3.438-1.588l11.822-4.258A3.023,3.023,0,0,1,56.764,76.1Zm-1.427-15.79-.845.373-.842-.373c-6.383-2.823-8.4-9.313-8.82-15.089v0a.91.91,0,0,0-.009-.119c-.061-.876-.085-1.736-.083-2.562l.005-1.691,1.663-.342a14.516,14.516,0,0,0,3.155-1.032A.9.9,0,0,0,49.7,39.4a15.048,15.048,0,0,0,3.42-2.258l1.367-1.189,1.368,1.19A14.527,14.527,0,0,0,62.58,40.5l1.658.342.005,1.691c.022,6.3-1.506,14.5-8.907,17.773ZM62.166,41.8a15.242,15.242,0,0,1-7.083-3.538.9.9,0,0,0-1.186,0A15.219,15.219,0,0,1,46.819,41.8a.9.9,0,0,0-.721.881c-.03,8.343,2.746,13.987,8.028,16.32a.9.9,0,0,0,.73,0c5.279-2.331,8.056-7.974,8.031-16.319a.9.9,0,0,0-.721-.882ZM54.492,57.178C49.276,54.625,48,48.452,47.91,43.4a16.844,16.844,0,0,0,6.582-3.283A16.87,16.87,0,0,0,61.075,43.4C60.983,48.453,59.7,54.628,54.492,57.178ZM52.9,49.217l4.752-4.755a.9.9,0,0,1,1.277,1.277l-5.39,5.394a.9.9,0,0,1-1.277,0l-2.209-2.209a.9.9,0,0,1,1.277-1.277Z" transform="translate(0 0)"/></g></svg>